<?xml version="1.0" encoding="UTF-8"?>
<!-- SVG Created by Crafty -->
<!-- Copyright Crafty 2026, All rights reserved -->
<svg version="1.1" xmlns="http://www.w3.org/2000/svg" width="320" height="320">
<path d="M0 0 C105.6 0 211.2 0 320 0 C320 105.6 320 211.2 320 320 C214.4 320 108.8 320 0 320 C0 214.4 0 108.8 0 0 Z " fill="#191919" transform="translate(0,0)"/>
<path d="M0 0 C9.9 0 19.8 0 30 0 C30 13.2 30 26.4 30 40 C36.6 40 43.2 40 50 40 C50 66.4 50 92.8 50 120 C63.2 120 76.4 120 90 120 C90 93.6 90 67.2 90 40 C83.4 40 76.8 40 70 40 C70 26.8 70 13.6 70 0 C83.2 0 96.4 0 110 0 C110 13.2 110 26.4 110 40 C123.2 40 136.4 40 150 40 C150 26.8 150 13.6 150 0 C163.2 0 176.4 0 190 0 C190 13.2 190 26.4 190 40 C183.4 40 176.8 40 170 40 C170 66.4 170 92.8 170 120 C183.2 120 196.4 120 210 120 C210 93.6 210 67.2 210 40 C216.6 40 223.2 40 230 40 C230 26.8 230 13.6 230 0 C239.9 0 249.8 0 260 0 C260 13.2 260 26.4 260 40 C269.9 40 279.8 40 290 40 C290 92.8 290 145.6 290 200 C184.4 200 78.8 200 -30 200 C-30 147.2 -30 94.4 -30 40 C-20.1 40 -10.2 40 0 40 C0 26.8 0 13.6 0 0 Z " fill="#DD9E77" transform="translate(30,120)"/>
<path d="M0 0 C13.2 0 26.4 0 40 0 C40 26.4 40 52.8 40 80 C26.8 80 13.6 80 0 80 C0 53.6 0 27.2 0 0 Z " fill="#262628" transform="translate(200,160)"/>
<path d="M0 0 C13.2 0 26.4 0 40 0 C40 26.4 40 52.8 40 80 C26.8 80 13.6 80 0 80 C0 53.6 0 27.2 0 0 Z " fill="#262628" transform="translate(80,160)"/>
<path d="M0 0 C13.2 0 26.4 0 40 0 C40 26.4 40 52.8 40 80 C26.8 80 13.6 80 0 80 C0 53.6 0 27.2 0 0 Z " fill="#F9FCFC" transform="translate(240,160)"/>
<path d="M0 0 C13.2 0 26.4 0 40 0 C40 26.4 40 52.8 40 80 C26.8 80 13.6 80 0 80 C0 53.6 0 27.2 0 0 Z " fill="#F9FCFC" transform="translate(40,160)"/>
<path d="M0 0 C9.9 0 19.8 0 30 0 C30 13.2 30 26.4 30 40 C39.9 40 49.8 40 60 40 C60 53.2 60 66.4 60 80 C46.8 80 33.6 80 20 80 C20 66.8 20 53.6 20 40 C13.4 40 6.8 40 0 40 C0 26.8 0 13.6 0 0 Z " fill="#BF7C5E" transform="translate(260,120)"/>
<path d="M0 0 C9.9 0 19.8 0 30 0 C30 13.2 30 26.4 30 40 C23.4 40 16.8 40 10 40 C10 53.2 10 66.4 10 80 C-3.2 80 -16.4 80 -30 80 C-30 66.8 -30 53.6 -30 40 C-20.1 40 -10.2 40 0 40 C0 26.8 0 13.6 0 0 Z " fill="#BF7C5E" transform="translate(30,120)"/>
<path d="M0 0 C13.2 0 26.4 0 40 0 C40 13.2 40 26.4 40 40 C26.8 40 13.6 40 0 40 C0 26.8 0 13.6 0 0 Z " fill="#535FCB" transform="translate(200,160)"/>
<path d="M0 0 C13.2 0 26.4 0 40 0 C40 13.2 40 26.4 40 40 C26.8 40 13.6 40 0 40 C0 26.8 0 13.6 0 0 Z " fill="#535FCB" transform="translate(80,160)"/>
<path d="M0 0 C13.2 0 26.4 0 40 0 C40 13.2 40 26.4 40 40 C26.8 40 13.6 40 0 40 C0 26.8 0 13.6 0 0 Z " fill="#BF7C5E" transform="translate(180,120)"/>
<path d="M0 0 C13.2 0 26.4 0 40 0 C40 13.2 40 26.4 40 40 C26.8 40 13.6 40 0 40 C0 26.8 0 13.6 0 0 Z " fill="#BF7C5E" transform="translate(100,120)"/>
</svg>
