<svg version="1.2" xmlns="http://www.w3.org/2000/svg" viewBox="0 0 1600 1600" width="1600" height="1600">
	<defs>
		<linearGradient id="g1" x2="1" gradientUnits="userSpaceOnUse" gradientTransform="matrix(0,1600,-1600,0,800,0)">
			<stop offset="0" stop-color="#a200fa"/>
			<stop offset="1" stop-color="#5a008a"/>
		</linearGradient>
	</defs>
	<style>
		.s0 { fill: url(#g1) } 
		.s1 { fill: #dc9d76 } 
		.s2 { fill: #442f1d } 
		.s3 { fill: #be7c5e } 
		.s4 { fill: #f8fbfb } 
		.s5 { fill: #262628 } 
		.s6 { fill: #5f53ca } 
		.s7 { fill: #686668;stroke: #686668;stroke-width: 20 } 
		.s8 { fill: #dedede } 
		.s9 { fill: #d5d5d5 } 
		.s10 { fill: #c1c1c1 } 
	</style>
	<path id="Shape 1" fill-rule="evenodd" class="s0" d="m1600 0v1600h-1600v-1600z"/>
	<g id="Bloxd Face">
		<path class="s1" d="m126 126c444.67 0 889.35 0 1347.5 0 0 444.67 0 889.35 0 1347.5-444.68 0-889.35 0-1347.5 0 0-444.68 0-889.35 0-1347.5z"/>
		<path class="s2" d="m126 126c444.67 0 889.35 0 1347.5 0 0 222.34 0 444.67 0 673.75-55.58 0-111.17 0-168.44 0 0-55.58 0-111.17 0-168.44-333.5 0-667.01 0-1010.62 0 0 55.59 0 111.17 0 168.44-55.59 0-111.17 0-168.44 0 0-222.34 0-444.68 0-673.75z"/>
		<path class="s3" d="m294.44 631.31c333.5 0 667.01 0 1010.62 0 0 55.59 0 111.17 0 168.44-55.58 0-111.17 0-168.44 0 0 111.17 0 222.34 0 336.87-55.58 0-111.16 0-168.43 0 0-55.58 0-111.16 0-168.43-111.17 0-222.34 0-336.88 0 0 55.58 0 111.17 0 168.43-55.58 0-111.17 0-168.44 0 0-111.16 0-222.33 0-336.87-55.58 0-111.16 0-168.43 0 0-55.58 0-111.17 0-168.44z"/>
		<path class="s4" d="m1136.62 799.75c55.59 0 111.17 0 168.44 0 0 111.17 0 222.34 0 336.87-55.58 0-111.17 0-168.44 0 0-111.16 0-222.33 0-336.87z"/>
		<path class="s4" d="m294.44 799.75c55.58 0 111.17 0 168.43 0 0 111.17 0 222.34 0 336.87-55.58 0-111.16 0-168.43 0 0-111.16 0-222.33 0-336.87z"/>
		<path class="s5" d="m968.19 968.19c55.58 0 111.17 0 168.43 0 0 55.58 0 111.17 0 168.43-55.58 0-111.16 0-168.43 0 0-55.58 0-111.16 0-168.43z"/>
		<path class="s5" d="m462.87 968.19c55.59 0 111.17 0 168.44 0 0 55.58 0 111.17 0 168.43-55.58 0-111.17 0-168.44 0 0-55.58 0-111.16 0-168.43z"/>
		<path class="s3" d="m1305.06 799.75c55.59 0 111.17 0 168.44 0 0 55.58 0 111.17 0 168.44-55.58 0-111.17 0-168.44 0 0-55.59 0-111.17 0-168.44z"/>
		<path class="s6" d="m968.19 799.75c55.58 0 111.17 0 168.43 0 0 55.58 0 111.17 0 168.44-55.58 0-111.16 0-168.43 0 0-55.59 0-111.17 0-168.44z"/>
		<path class="s6" d="m462.87 799.75c55.59 0 111.17 0 168.44 0 0 55.58 0 111.17 0 168.44-55.58 0-111.17 0-168.44 0 0-55.59 0-111.17 0-168.44z"/>
		<path class="s3" d="m126 799.75c55.58 0 111.17 0 168.44 0 0 55.58 0 111.17 0 168.44-55.59 0-111.17 0-168.44 0 0-55.59 0-111.17 0-168.44z"/>
	</g>
	<g id="Wrench">
		<path fill-rule="evenodd" class="s7" d="m1114.65 1253.85l141.96-141.96c3.47-3.47 7.13-6.71 10.55-10.29 6.51-6.81 12.74-14.62 17.53-22.51 5.12-8.44 8.5-16.81 8.5-23.7 0-6.41-0.42-12.33-0.84-18.14-0.88-12.29-1.74-24.18 1.01-38.43l0.12-0.76c3.14-15.69 8.75-30 16.33-42.72 7.9-13.25 17.94-24.72 29.58-34.2 18.6-15.15 39.16-24.22 60.73-28.4 23.44-4.53 47.99-3.24 72.43 2.34 9.36 2.14 14.27 4.69 15.25 11.35 0.77 5.22-2.22 9.71-8.56 16.2l-0.49 0.53-65.09 65.09-0.02-0.02-1.38 1.39c-5.51 5.49-8.32 8.3-8.99 10.45-0.78 2.53-0.04 7.25 1.48 16.89l0.03 0.17c0.64 4.07 3.6 10.69 6.23 16.58q0.3 0.67 0.61 1.34 0.3 0.68 0.59 1.35 0.3 0.68 0.59 1.36 0.3 0.67 0.59 1.35 2.59 1.11 5.41 2.38c5.88 2.63 12.51 5.59 16.57 6.23l0.18 0.03c9.64 1.52 14.35 2.26 16.88 1.48 2.15-0.67 4.96-3.48 10.45-8.98l0.93-0.94 0.44-0.47 65.09-65.09 0.02 0.02c4.24-4.24 10.17-10.03 16.72-9.07 6.65 0.99 9.2 5.89 11.34 15.25 5.58 24.44 6.87 48.99 2.34 72.43-4.17 21.56-13.25 42.13-28.4 60.73-9.48 11.63-20.94 21.68-34.19 29.58-12.73 7.58-27.03 13.19-42.73 16.33v-0.03c-14.59 2.93-26.68 2.06-39.19 1.16-5.81-0.42-11.73-0.84-18.14-0.84-6.89 0-15.26 3.38-23.7 8.5-10.61 6.44-21.06 15.48-29.15 24.31q-0.35 0.47-0.78 0.9l-150.46 150.46-0.03-0.03c-9.8 9.35-18.1 18.29-25.18 29.96-5.12 8.44-8.5 16.81-8.5 23.7 0 6.41 0.42 12.33 0.84 18.14 0.88 12.29 1.74 24.18-1.01 38.43l-0.12 0.76c-3.14 15.69-8.75 30-16.33 42.73-7.9 13.25-17.94 24.71-29.58 34.19-18.6 15.15-39.16 24.22-60.73 28.4-23.44 4.53-47.99 3.24-72.43-2.34-9.36-2.14-14.26-4.69-15.25-11.35-0.77-5.22 2.22-9.7 8.56-16.2l13.69-13.73 51.89-51.89 0.02 0.02 1.38-1.39c5.5-5.49 8.32-8.3 8.99-10.45 0.77-2.5 0.05-7.14-1.43-16.58-0.03-0.13-0.08-0.35-0.08-0.48-0.64-4.06-3.6-10.69-6.23-16.57q-1.27-2.82-2.38-5.41-2.59-1.11-5.4-2.37c-5.79-2.59-12.29-5.5-16.37-6.2l-0.41-0.07c-9.63-1.52-14.33-2.26-16.86-1.48-2.15 0.67-4.96 3.48-10.45 8.98l-0.93 0.93-0.44 0.48-63.73 63.73c-4.73 4.73-11.12 11.44-18.1 10.41-6.65-0.98-9.2-5.89-11.34-15.25-5.58-24.44-6.87-48.99-2.34-72.43 4.18-21.57 13.25-42.13 28.4-60.73 9.47-11.63 20.94-21.68 34.19-29.57 12.73-7.59 27.03-13.2 42.73-16.34v0.03c14.59-2.93 26.68-2.06 39.19-1.16 5.81 0.42 11.73 0.84 18.14 0.84 6.89 0 15.25-3.38 23.7-8.5 10.61-6.44 21.06-15.48 29.15-24.3z"/>
		<path fill-rule="evenodd" class="s8" d="m1190.31 1190.31l-75.23 75.23c-15.9 17.55-40.95 36.22-59.69 36.22-19.49 0-35.52-3.92-55.66 0.11-30.17 6.05-54.63 21.62-71.97 42.91-29.81 36.6-34.52 81.34-24.35 125.9 2.53 11.07 4.25 11.33 13.69 2.02l65.09-65.1c14.7-14.69 13.92-14.77 36.24-11.25 7.8 1.23 19.88 7.73 27.24 10.48 2.75 7.36 9.25 19.44 10.48 27.24 3.52 22.32 3.44 21.54-11.25 36.24l-65.1 65.09c-9.31 9.44-9.05 11.16 2.02 13.69 44.56 10.17 89.3 5.46 125.91-24.36 21.28-17.33 36.85-41.8 42.9-71.96 4.04-20.14 0.11-36.17 0.11-55.66 0-18.74 18.67-43.79 36.22-59.69l75.23-75.23 75.23-75.23c15.9-17.55 40.95-36.22 59.69-36.22 19.49 0 35.52 3.93 55.66-0.11 30.16-6.05 54.63-21.62 71.96-42.9 29.82-36.61 34.53-81.35 24.36-125.91-2.53-11.07-4.25-11.33-13.69-2.02l-65.09 65.1c-14.7 14.69-13.92 14.77-36.24 11.25-7.8-1.23-19.88-7.73-27.24-10.48-2.75-7.36-9.25-19.44-10.48-27.24-3.52-22.32-3.44-21.54 11.25-36.23l65.1-65.1c9.31-9.44 9.05-11.16-2.03-13.69-44.55-10.17-89.29-5.46-125.9 24.35-21.28 17.34-36.85 41.81-42.9 71.97-4.04 20.14-0.11 36.17-0.11 55.66 0 18.74-18.67 43.79-36.22 59.69z"/>
		<path fill-rule="evenodd" class="s9" d="m1226.2 1226.2l-180.6 180.6 0.07 0.03c2.75 7.36 9.25 19.44 10.48 27.24 3.52 22.32 3.44 21.54-11.25 36.24l-65.1 65.09c-9.31 9.44-9.05 11.16 2.02 13.69 44.56 10.17 89.3 5.46 125.91-24.36 21.28-17.33 36.85-41.8 42.9-71.96 4.04-20.14 0.11-36.17 0.11-55.66 0-18.74 18.67-43.79 36.22-59.69l75.23-75.23 75.23-75.23c15.9-17.55 40.95-36.22 59.69-36.22 19.49 0 35.52 3.93 55.66-0.11 30.16-6.05 54.63-21.62 71.96-42.9 29.82-36.61 34.53-81.35 24.36-125.91-2.53-11.07-4.25-11.33-13.69-2.02l-65.09 65.1c-14.7 14.69-13.92 14.77-36.24 11.25-7.8-1.23-19.88-7.73-27.24-10.48l-0.03-0.07z"/>
		<path fill-rule="evenodd" class="s10" d="m1328.52 1123.98c6.73 6.73 6.73 17.74 0 24.48l-174 174c-6.74 6.73-17.75 6.73-24.48 0-6.73-6.73-6.73-17.74 0-24.48l174-174c6.73-6.73 17.75-6.73 24.48 0z"/>
	</g>
</svg>
