<svg version="1.2" xmlns="http://www.w3.org/2000/svg" viewBox="0 0 1600 1600" width="1600" height="1600">
	<defs>
		<linearGradient id="g1" x2="1" gradientUnits="userSpaceOnUse" gradientTransform="matrix(0,1600,-1600,0,800,0)">
			<stop offset="0" stop-color="#a200fa"/>
			<stop offset="1" stop-color="#5a008a"/>
		</linearGradient>
		<linearGradient id="g2" x2="1" gradientUnits="userSpaceOnUse" gradientTransform="matrix(0,1600,-1600,0,800,0)">
			<stop offset="0" stop-color="#1d9700"/>
			<stop offset="1" stop-color="#1a5d00"/>
		</linearGradient>
	</defs>
	<style>
		.s0 { fill: url(#g1) } 
		.s1 { fill: url(#g2) } 
		.s2 { fill: #dc9d76 } 
		.s3 { fill: #442f1d } 
		.s4 { fill: #be7c5e } 
		.s5 { fill: #f8fbfb } 
		.s6 { fill: #262628 } 
		.s7 { fill: #5f53ca } 
		.s8 { fill: #686668;stroke: #686668;stroke-width: 20 } 
		.s9 { fill: #dedede } 
		.s10 { fill: #d5d5d5 } 
		.s11 { fill: #c1c1c1 } 
	</style>
	<path id="Shape 1" fill-rule="evenodd" class="s0" d="m1600 0v1600h-1600v-1600z"/>
	<path id="Shape 1 copy" fill-rule="evenodd" class="s1" d="m1600 0v1600h-1600v-1600z"/>
	<g id="Bloxd Face">
		<path class="s2" d="m211 211c388.8 0 777.6 0 1178.18 0 0 388.8 0 777.6 0 1178.18-388.8 0-777.6 0-1178.18 0 0-388.8 0-777.6 0-1178.18z"/>
		<path class="s3" d="m211 211c388.8 0 777.6 0 1178.18 0 0 194.4 0 388.8 0 589.09-48.6 0-97.2 0-147.27 0 0-48.6 0-97.2 0-147.27-291.6 0-583.2 0-883.64 0 0 48.6 0 97.2 0 147.27-48.6 0-97.2 0-147.27 0 0-194.4 0-388.8 0-589.09z"/>
		<path class="s4" d="m358.27 652.82c291.6 0 583.2 0 883.64 0 0 48.6 0 97.2 0 147.27-48.6 0-97.2 0-147.27 0 0 97.2 0 194.4 0 294.55-48.6 0-97.2 0-147.28 0 0-48.6 0-97.2 0-147.28-97.2 0-194.4 0-294.54 0 0 48.6 0 97.2 0 147.28-48.6 0-97.2 0-147.27 0 0-97.2 0-194.4 0-294.55-48.6 0-97.2 0-147.28 0 0-48.6 0-97.2 0-147.27z"/>
		<path class="s5" d="m1094.64 800.09c48.6 0 97.2 0 147.27 0 0 97.2 0 194.4 0 294.55-48.6 0-97.2 0-147.27 0 0-97.2 0-194.4 0-294.55z"/>
		<path class="s5" d="m358.27 800.09c48.6 0 97.2 0 147.28 0 0 97.2 0 194.4 0 294.55-48.6 0-97.2 0-147.28 0 0-97.2 0-194.4 0-294.55z"/>
		<path class="s6" d="m947.36 947.36c48.6 0 97.2 0 147.28 0 0 48.6 0 97.2 0 147.28-48.6 0-97.2 0-147.28 0 0-48.6 0-97.2 0-147.28z"/>
		<path class="s6" d="m505.55 947.36c48.6 0 97.2 0 147.27 0 0 48.6 0 97.2 0 147.28-48.6 0-97.2 0-147.27 0 0-48.6 0-97.2 0-147.28z"/>
		<path class="s4" d="m1241.91 800.09c48.6 0 97.2 0 147.27 0 0 48.6 0 97.2 0 147.27-48.6 0-97.2 0-147.27 0 0-48.6 0-97.2 0-147.27z"/>
		<path class="s7" d="m947.36 800.09c48.6 0 97.2 0 147.28 0 0 48.6 0 97.2 0 147.27-48.6 0-97.2 0-147.28 0 0-48.6 0-97.2 0-147.27z"/>
		<path class="s7" d="m505.55 800.09c48.6 0 97.2 0 147.27 0 0 48.6 0 97.2 0 147.27-48.6 0-97.2 0-147.27 0 0-48.6 0-97.2 0-147.27z"/>
		<path class="s4" d="m211 800.09c48.6 0 97.2 0 147.27 0 0 48.6 0 97.2 0 147.27-48.6 0-97.2 0-147.27 0 0-48.6 0-97.2 0-147.27z"/>
	</g>
	<g id="Wrench">
		<path fill-rule="evenodd" class="s8" d="m1088.1 1210.71l127.08-127.08c3.11-3.11 6.38-6.01 9.44-9.21 5.82-6.1 11.4-13.09 15.69-20.15 4.59-7.56 7.61-15.05 7.61-21.22 0-5.74-0.38-11.03-0.75-16.24-0.79-11-1.55-21.64 0.9-34.4l0.11-0.68c2.81-14.05 7.83-26.85 14.62-38.24 7.08-11.86 16.06-22.13 26.48-30.61 16.65-13.57 35.06-21.69 54.37-25.43 20.97-4.05 42.95-2.89 64.83 2.1 8.38 1.91 12.77 4.2 13.65 10.15 0.69 4.68-1.98 8.7-7.66 14.51l-0.44 0.47-58.27 58.27-0.01-0.01-1.24 1.24c-4.93 4.91-7.45 7.43-8.04 9.35-0.71 2.27-0.04 6.49 1.32 15.12l0.02 0.15c0.58 3.64 3.23 9.57 5.58 14.84q0.27 0.6 0.54 1.21 0.27 0.6 0.54 1.21 0.26 0.6 0.53 1.21 0.26 0.6 0.52 1.21 2.32 0.99 4.84 2.13c5.27 2.35 11.2 5 14.84 5.58l0.16 0.02c8.62 1.36 12.84 2.03 15.11 1.32 1.93-0.59 4.44-3.11 9.35-8.03l0.84-0.84 0.39-0.42 58.27-58.27 0.01 0.01c3.8-3.79 9.1-8.97 14.97-8.11 5.95 0.88 8.24 5.27 10.15 13.65 4.99 21.88 6.15 43.86 2.09 64.83-3.73 19.31-11.85 37.72-25.42 54.37-8.48 10.42-18.74 19.4-30.61 26.48-11.39 6.79-24.19 11.81-38.24 14.62l-0.01-0.03c-13.05 2.62-23.88 1.84-35.07 1.04-5.21-0.37-10.5-0.75-16.24-0.75-6.17 0-13.66 3.02-21.22 7.61-9.5 5.76-18.85 13.86-26.09 21.75q-0.32 0.43-0.7 0.81l-134.69 134.69-0.02-0.03c-8.78 8.37-16.21 16.38-22.54 26.82-4.59 7.56-7.62 15.05-7.62 21.22 0 5.74 0.39 11.03 0.76 16.24 0.79 11 1.55 21.64-0.9 34.4l-0.11 0.68c-2.81 14.05-7.83 26.85-14.62 38.25-7.08 11.86-16.06 22.12-26.48 30.6-16.65 13.57-35.06 21.69-54.37 25.42-20.97 4.06-42.96 2.9-64.83-2.09-8.38-1.91-12.77-4.2-13.65-10.15-0.69-4.68 1.98-8.69 7.66-14.51l12.26-12.29 46.45-46.45 0.01 0.02 1.24-1.24c4.93-4.92 7.45-7.43 8.04-9.36 0.7-2.24 0.06-6.4-1.28-14.84-0.02-0.12-0.06-0.32-0.06-0.43-0.58-3.64-3.23-9.57-5.58-14.84q-1.14-2.52-2.13-4.84-2.32-0.99-4.83-2.12c-5.19-2.32-11.01-4.92-14.66-5.55l-0.37-0.06c-8.61-1.36-12.83-2.03-15.09-1.33-1.92 0.6-4.44 3.12-9.35 8.04l-0.83 0.84-0.4 0.42-57.04 57.05c-4.24 4.24-9.96 10.24-16.21 9.32-5.96-0.88-8.24-5.27-10.15-13.65-4.99-21.88-6.15-43.86-2.09-64.83 3.73-19.31 11.85-37.72 25.42-54.37 8.48-10.42 18.74-19.4 30.61-26.47 11.39-6.79 24.19-11.82 38.24-14.63v0.03c13.06-2.62 23.88-1.84 35.08-1.04 5.21 0.37 10.5 0.75 16.24 0.75 6.17 0 13.66-3.02 21.21-7.61 9.51-5.76 18.86-13.86 26.1-21.75z"/>
		<path fill-rule="evenodd" class="s9" d="m1155.82 1153.83l-67.34 67.34c-14.23 15.71-36.65 32.42-53.43 32.42-17.45 0-31.8-3.51-49.82 0.11-27.01 5.41-48.91 19.35-64.42 38.4-26.69 32.76-30.91 72.82-21.8 112.7 2.26 9.92 3.8 10.15 12.25 1.81l58.27-58.27c13.16-13.16 12.46-13.23 32.44-10.07 6.98 1.1 17.79 6.92 24.38 9.38 2.46 6.59 8.28 17.4 9.38 24.38 3.16 19.98 3.09 19.28-10.07 32.44l-58.27 58.27c-8.34 8.45-8.11 9.99 1.81 12.25 39.88 9.11 79.94 4.89 112.7-21.8 19.05-15.51 32.99-37.41 38.4-64.42 3.62-18.02 0.11-32.37 0.11-49.82 0-16.78 16.71-39.2 32.42-53.43l67.34-67.34 67.35-67.35c14.23-15.71 36.65-32.42 53.43-32.42 17.45 0 31.8 3.51 49.82-0.11 27-5.41 48.91-19.35 64.42-38.4 26.69-32.76 30.91-72.81 21.8-112.7-2.26-9.92-3.8-10.15-12.25-1.81l-58.27 58.27c-13.16 13.16-12.46 13.23-32.44 10.07-6.98-1.1-17.79-6.92-24.38-9.38-2.46-6.59-8.28-17.4-9.38-24.38-3.16-19.98-3.09-19.28 10.07-32.44l58.27-58.27c8.34-8.45 8.11-9.99-1.81-12.25-39.89-9.11-79.94-4.89-112.7 21.8-19.05 15.51-32.99 37.41-38.4 64.42-3.62 18.02-0.11 32.37-0.11 49.82 0 16.78-16.71 39.2-32.42 53.43z"/>
		<path fill-rule="evenodd" class="s10" d="m1187.95 1185.95l-161.66 161.67 0.06 0.03c2.46 6.59 8.28 17.4 9.38 24.38 3.16 19.98 3.09 19.28-10.07 32.44l-58.27 58.27c-8.34 8.45-8.11 9.99 1.81 12.25 39.88 9.11 79.94 4.89 112.7-21.8 19.05-15.51 32.99-37.41 38.4-64.42 3.62-18.02 0.11-32.37 0.11-49.82 0-16.78 16.71-39.2 32.42-53.43l67.34-67.34 67.35-67.35c14.23-15.71 36.65-32.42 53.43-32.42 17.45 0 31.8 3.51 49.82-0.11 27-5.41 48.91-19.35 64.42-38.4 26.69-32.76 30.91-72.81 21.8-112.7-2.26-9.92-3.8-10.15-12.25-1.81l-58.27 58.27c-13.16 13.16-12.46 13.23-32.44 10.07-6.98-1.1-17.79-6.92-24.38-9.38l-0.03-0.06z"/>
		<path fill-rule="evenodd" class="s11" d="m1279.55 1094.45c6.03 6.03 6.03 15.89 0 21.91l-155.76 155.77c-6.03 6.02-15.89 6.02-21.92 0-6.02-6.03-6.02-15.89 0-21.92l155.77-155.76c6.02-6.02 15.88-6.02 21.91 0z"/>
	</g>
</svg>
